<svg width="34" height="40" viewBox="0 0 34 40" fill="none" xmlns="http://www.w3.org/2000/svg">
<g clip-path="url(#clip0_1_246)">
<path d="M11.9048 8.53365C12.1624 8.53365 12.3838 8.44151 12.5689 8.25721C12.754 8.07292 12.8466 7.85256 12.8466 7.59615C12.8466 7.33974 12.754 7.11939 12.5689 6.9351C12.3838 6.7508 12.1624 6.65865 11.9048 6.65865C11.6473 6.65865 11.4299 6.7508 11.2528 6.9351C11.0758 7.11939 10.9872 7.33974 10.9872 7.59615C10.9872 7.85256 11.0758 8.07292 11.2528 8.25721C11.4299 8.44151 11.6473 8.53365 11.9048 8.53365ZM22.0952 8.53365C22.3527 8.53365 22.5701 8.44151 22.7472 8.25721C22.9242 8.07292 23.0128 7.85256 23.0128 7.59615C23.0128 7.33974 22.9242 7.11939 22.7472 6.9351C22.5701 6.7508 22.3527 6.65865 22.0952 6.65865C21.8376 6.65865 21.6162 6.7508 21.4311 6.9351C21.246 7.11939 21.1534 7.33974 21.1534 7.59615C21.1534 7.85256 21.246 8.07292 21.4311 8.25721C21.6162 8.44151 21.8376 8.53365 22.0952 8.53365ZM2.48722 12.9567C3.16335 12.9567 3.7429 13.1971 4.22585 13.6779C4.70881 14.1587 4.95028 14.7356 4.95028 15.4087V25.7452C4.95028 26.4343 4.71283 27.0192 4.23793 27.5C3.76302 27.9808 3.17945 28.2212 2.48722 28.2212C1.79498 28.2212 1.20739 27.9808 0.724432 27.5C0.241477 27.0192 0 26.4343 0 25.7452V15.4087C0 14.7356 0.241477 14.1587 0.724432 13.6779C1.20739 13.1971 1.79498 12.9567 2.48722 12.9567ZM28.0838 13.4135V29.4231C28.0838 30.1603 27.8262 30.7853 27.3111 31.2981C26.7959 31.8109 26.1761 32.0673 25.4517 32.0673H23.6406V37.524C23.6406 38.2131 23.3991 38.7981 22.9162 39.2788C22.4332 39.7596 21.8456 40 21.1534 40C20.4612 40 19.8736 39.7596 19.3906 39.2788C18.9077 38.7981 18.6662 38.2131 18.6662 37.524V32.0673H15.3338V37.524C15.3338 38.2131 15.0923 38.7981 14.6094 39.2788C14.1264 39.7596 13.5388 40 12.8466 40C12.1705 40 11.5909 39.7596 11.108 39.2788C10.625 38.7981 10.3835 38.2131 10.3835 37.524L10.3594 32.0673H8.57244C7.83191 32.0673 7.20407 31.8109 6.68892 31.2981C6.17377 30.7853 5.91619 30.1603 5.91619 29.4231V13.4135H28.0838ZM22.4815 3.67788C24.2041 4.5593 25.5805 5.78926 26.6108 7.36779C27.6411 8.94631 28.1562 10.6731 28.1562 12.5481H5.8196C5.8196 10.6731 6.33475 8.94631 7.36506 7.36779C8.39536 5.78926 9.77983 4.5593 11.5185 3.67788L9.80398 0.528846C9.69129 0.320513 9.73153 0.160256 9.92472 0.0480769C10.134 -0.0480769 10.295 0 10.4077 0.192308L12.1463 3.36538C13.6757 2.69231 15.2936 2.35577 17 2.35577C18.7064 2.35577 20.3243 2.69231 21.8537 3.36538L23.5923 0.192308C23.705 0 23.866 -0.0480769 24.0753 0.0480769C24.2685 0.160256 24.3087 0.320513 24.196 0.528846L22.4815 3.67788ZM34 15.4087V25.7452C34 26.4343 33.7585 27.0192 33.2756 27.5C32.7926 27.9808 32.205 28.2212 31.5128 28.2212C30.8366 28.2212 30.2571 27.9808 29.7741 27.5C29.2912 27.0192 29.0497 26.4343 29.0497 25.7452V15.4087C29.0497 14.7196 29.2912 14.1386 29.7741 13.6659C30.2571 13.1931 30.8366 12.9567 31.5128 12.9567C32.205 12.9567 32.7926 13.1931 33.2756 13.6659C33.7585 14.1386 34 14.7196 34 15.4087Z" fill="white" fill-opacity="0.33"/>
</g>
<defs>
<clipPath id="clip0_1_246">
<rect width="34" height="40" fill="white"/>
</clipPath>
</defs>
</svg>
