<svg width="40" height="40" viewBox="0 0 40 40" fill="none" xmlns="http://www.w3.org/2000/svg">
<path d="M32.775 28.0183C32.3135 29.0942 31.7433 30.12 31.0733 31.08C30.1783 32.3583 29.4433 33.2417 28.88 33.7333C28.005 34.5367 27.065 34.95 26.06 34.9733C25.34 34.9733 24.47 34.7683 23.4567 34.3517C22.44 33.9367 21.5067 33.7333 20.6517 33.7333C19.7567 33.7333 18.7967 33.9367 17.7683 34.3517C16.7417 34.7683 15.9117 34.9867 15.2767 35.0067C14.315 35.0483 13.3533 34.625 12.395 33.7333C11.7833 33.2 11.0183 32.2833 10.1 30.9867C9.11668 29.605 8.30834 27.9967 7.67501 26.1683C6.99668 24.19 6.65668 22.2767 6.65668 20.4233C6.65668 18.3017 7.11501 16.47 8.03334 14.9367C8.72792 13.7324 9.72092 12.7274 10.9167 12.0183C12.0958 11.3111 13.4418 10.9303 14.8167 10.915C15.5833 10.915 16.5883 11.1517 17.8333 11.6183C19.0783 12.085 19.8783 12.3217 20.2267 12.3217C20.49 12.3217 21.375 12.0433 22.8817 11.4917C24.3033 10.98 25.5033 10.7683 26.4867 10.8517C29.1533 11.0667 31.155 12.1167 32.4867 14.01C30.1033 15.455 28.925 17.4767 28.9483 20.0717C28.9683 22.0933 29.7033 23.775 31.1433 25.11C31.78 25.7192 32.5228 26.2067 33.335 26.5483C33.1583 27.06 32.9717 27.5483 32.775 28.0183ZM26.6633 3.96667C26.6633 5.55 26.0833 7.03 24.9317 8.39833C23.5383 10.025 21.855 10.9667 20.03 10.8183C20.0061 10.6192 19.9945 10.4189 19.995 10.2183C19.995 8.69666 20.655 7.07 21.8333 5.73833C22.42 5.065 23.1667 4.50333 24.0717 4.05667C24.975 3.61667 25.8283 3.37333 26.6317 3.33167C26.6533 3.545 26.6633 3.75667 26.6633 3.96667Z" fill="white" fill-opacity="0.33"/>
</svg>
