<svg width="40" height="40" viewBox="0 0 40 40" fill="none" xmlns="http://www.w3.org/2000/svg">
<g clip-path="url(#clip0_1_250)">
<path d="M37.3333 23.8462V3.84615C37.3333 3.63782 37.2674 3.45753 37.1354 3.30529C37.0035 3.15304 36.8472 3.07692 36.6667 3.07692H3.33333C3.15278 3.07692 2.99653 3.15304 2.86458 3.30529C2.73264 3.45753 2.66667 3.63782 2.66667 3.84615V23.8462C2.66667 24.0545 2.73264 24.2348 2.86458 24.387C2.99653 24.5393 3.15278 24.6154 3.33333 24.6154H36.6667C36.8472 24.6154 37.0035 24.5393 37.1354 24.387C37.2674 24.2348 37.3333 24.0545 37.3333 23.8462ZM40 3.84615V30C40 31.0577 39.6736 31.9631 39.0208 32.7163C38.3681 33.4696 37.5833 33.8462 36.6667 33.8462H25.3333C25.3333 34.4391 25.4444 35.0601 25.6667 35.7091C25.8889 36.3582 26.1111 36.9271 26.3333 37.4159C26.5556 37.9046 26.6667 38.2532 26.6667 38.4615C26.6667 38.8782 26.5347 39.2388 26.2708 39.5433C26.0069 39.8478 25.6944 40 25.3333 40H14.6667C14.3056 40 13.9931 39.8478 13.7292 39.5433C13.4653 39.2388 13.3333 38.8782 13.3333 38.4615C13.3333 38.2372 13.4444 37.8846 13.6667 37.4038C13.8889 36.9231 14.1111 36.3622 14.3333 35.7212C14.5556 35.0801 14.6667 34.4551 14.6667 33.8462H3.33333C2.41667 33.8462 1.63194 33.4696 0.979167 32.7163C0.326389 31.9631 0 31.0577 0 30V3.84615C0 2.78846 0.326389 1.88301 0.979167 1.12981C1.63194 0.376603 2.41667 0 3.33333 0H36.6667C37.5833 0 38.3681 0.376603 39.0208 1.12981C39.6736 1.88301 40 2.78846 40 3.84615Z" fill="white" fill-opacity="0.33"/>
</g>
<defs>
<clipPath id="clip0_1_250">
<rect width="40" height="40" fill="white"/>
</clipPath>
</defs>
</svg>
