<svg width="135" height="80" viewBox="0 0 135 80" fill="none" xmlns="http://www.w3.org/2000/svg">
<path d="M50.9052 7.04873C51.0657 7.00277 51.2347 6.98911 51.4012 7.00864C54.8461 7.00864 58.291 7.00864 61.748 7.00864C61.9049 6.99588 62.0623 7.02547 62.2019 7.09395C62.3415 7.16242 62.4575 7.26694 62.5362 7.39525C69.3753 16.8036 76.2194 26.2072 83.0686 35.6061C83.1629 35.7378 83.2634 35.8666 83.3729 36.0242C83.5068 35.8695 83.4551 35.7063 83.4551 35.5631C83.4551 30.437 83.4551 25.3109 83.4551 20.1848V7.51553C83.4551 7.45539 83.4551 7.39811 83.4551 7.33797C83.4551 7.01437 83.4551 7.00864 83.8294 7.00864H88.4398C90.4423 7.00864 92.4416 7.00864 94.444 7.00864C94.5798 6.99918 94.7156 7.02651 94.8353 7.08742C94.955 7.14832 95.0537 7.24024 95.1196 7.35229C101.985 16.7931 108.858 26.2311 115.737 35.6662L116.042 36.0643C116.107 35.9119 116.128 35.7458 116.102 35.5831V8.14841C116.102 7.88495 116.102 7.62148 116.102 7.36088C116.102 7.01437 116.102 7.0115 116.495 7.0115H126.866C126.975 7.01723 127.083 7.01723 127.192 7.0115C127.45 6.98 127.523 7.10028 127.496 7.31793C127.496 7.38952 127.496 7.46398 127.496 7.53557C127.496 22.1101 127.496 36.6847 127.496 51.2593C127.496 51.8893 127.603 51.8321 126.909 51.8321C123.479 51.8321 120.049 51.8321 116.62 51.8321C116.455 51.846 116.289 51.8151 116.143 51.743C115.996 51.6709 115.874 51.5607 115.792 51.4254C108.935 41.9979 102.076 32.5724 95.217 23.1487L94.9583 22.7994C94.8784 22.9396 94.8536 23.1018 94.8884 23.2576C94.8884 26.7762 94.8884 30.2957 94.8884 33.8162V51.4283C94.8884 51.8063 94.8883 51.8091 94.4806 51.8091C90.9292 51.8091 87.3747 51.8091 83.8294 51.8091C83.7016 51.8095 83.5765 51.7754 83.4686 51.711C83.3608 51.6465 83.2748 51.5544 83.2208 51.4454C78.942 45.5652 74.6613 39.6869 70.3785 33.8105C63.9898 25.0436 57.5992 16.2757 51.2064 7.50694C51.0746 7.37459 50.9722 7.21881 50.9052 7.04873Z" fill="white"/>
<path d="M51.9673 51.7862C51.813 51.8409 51.6465 51.8576 51.4834 51.8349C48.0233 51.8349 44.5632 51.8349 41.1031 51.8349C40.9605 51.8463 40.8174 51.8198 40.6899 51.7586C40.5625 51.6973 40.4558 51.6037 40.3819 51.4884C35.0178 44.0999 29.6415 36.7143 24.253 29.3316C24.1525 29.2283 24.0805 29.1034 24.043 28.9679C24.1944 28.91 24.3602 28.8941 24.5208 28.9221C27.4849 28.9221 30.4489 28.9221 33.413 28.9221C35.2452 28.9162 37.003 28.2395 38.3141 27.0352C39.6253 25.8309 40.3868 24.1936 40.4374 22.4702C40.4881 20.7467 39.8238 19.0723 38.5854 17.8017C37.3469 16.5311 35.6315 15.764 33.8025 15.6629C33.4769 15.6486 33.1513 15.6486 32.8257 15.6486C26.8204 15.6486 20.8152 15.6486 14.81 15.6486C14.645 15.6608 14.4797 15.6289 14.3332 15.5564C14.1867 15.4839 14.065 15.3739 13.9822 15.2391C12.1076 12.6416 10.2148 10.0557 8.33103 7.46685C8.21092 7.33198 8.11995 7.17633 8.06323 7.00865H8.55014C16.8986 7.00865 25.2471 7.00865 33.5956 7.00865C37.2444 6.96236 40.793 8.13196 43.6138 10.3106C46.5688 12.5665 48.5918 15.7244 49.3319 19.2369C49.8065 21.3724 49.7766 23.5799 49.2444 25.7034C48.7123 27.8268 47.6908 29.8143 46.2522 31.5252C44.7924 33.2392 43.0034 34.6798 40.9784 35.7722C40.8871 35.8237 40.7927 35.8752 40.6953 35.9239C40.6695 35.9317 40.6464 35.9458 40.6281 35.9646C40.6099 35.9835 40.5972 36.0065 40.5913 36.0315C40.5855 36.0564 40.5867 36.0823 40.5948 36.1066C40.6029 36.131 40.6176 36.1529 40.6375 36.1702C40.7014 36.2533 40.7623 36.3392 40.8232 36.4222C44.4527 41.4052 48.0832 46.3871 51.7147 51.3681C51.8324 51.4871 51.9189 51.6303 51.9673 51.7862Z" fill="white"/>
<path d="M32.594 51.7489C32.429 51.8109 32.2497 51.8316 32.0736 51.809H8.37937C8.03244 51.809 8.02636 51.809 8.02332 51.4597C8.02332 50.7895 8.02332 50.1166 8.02332 49.455C8.02332 39.2334 8.02332 29.0117 8.02332 18.79V18.1943C8.11461 18.2573 8.04157 18.1943 8.10548 18.1943C8.12093 18.1947 8.13585 18.1998 8.14808 18.2087C8.19678 18.2631 8.24547 18.3203 8.29112 18.3805L32.594 51.7489Z" fill="#E9001D"/>
<path d="M73.9146 56.9152C74.1142 56.8727 74.32 56.862 74.5233 56.8837C75.6097 56.8837 76.6931 56.8837 77.7795 56.8837C78.2786 56.8837 78.1782 56.8293 78.2816 57.2675C78.6407 58.8024 78.9785 60.346 79.3194 61.8838C79.7758 63.9228 80.2323 65.9618 80.6766 68.0037C80.8014 68.5764 80.8592 69.1835 80.9596 69.8536C81.2 68.0122 81.8239 66.3427 82.3017 64.6416C82.9925 62.1845 83.7168 59.7389 84.4319 57.2904C84.5506 56.8837 84.5506 56.8809 84.9766 56.8809H88.3241C88.7928 56.8809 88.7958 56.8809 88.9024 57.299C89.6571 60.2162 90.4087 63.1324 91.1574 66.0477C91.4995 67.1942 91.7567 68.3616 91.9273 69.5415C91.9588 69.5261 91.9855 69.5031 92.0047 69.475C92.0239 69.4469 92.035 69.4145 92.0368 69.3811C92.2955 67.4366 92.8189 65.5408 93.2176 63.6221C93.6558 61.5173 94.1305 59.4181 94.5962 57.3219C94.6175 57.2216 94.6479 57.1214 94.6662 57.0212C94.668 56.9995 94.6745 56.9785 94.6853 56.9593C94.6961 56.9401 94.7109 56.9232 94.7288 56.9095C94.7467 56.8959 94.7674 56.8858 94.7896 56.8799C94.8118 56.874 94.835 56.8723 94.8579 56.8751H98.6984C98.4367 57.823 98.1902 58.7222 97.9376 59.6243C96.6757 64.1319 95.4117 68.6394 94.1458 73.1469C94.0393 73.5307 94.0393 73.5307 93.6315 73.5336H90.0435C89.6418 73.5336 89.6388 73.5336 89.5445 73.1813C88.595 69.7219 87.6465 66.2606 86.6991 62.7974C86.5988 62.4138 86.5256 62.0245 86.48 61.6318C86.48 61.5574 86.5104 61.4543 86.3522 61.4113C86.2519 62.0531 86.1127 62.6889 85.9352 63.3157C85.0162 66.5823 84.1032 69.8498 83.1964 73.1183C83.0807 73.5307 83.0777 73.5307 82.6516 73.5336H78.872C78.4886 73.5336 78.4855 73.5336 78.3851 73.1699C77.1678 68.8227 75.9576 64.4746 74.7546 60.1255L73.9786 57.3305C73.9251 57.1981 73.9033 57.0564 73.9146 56.9152Z" fill="#DDDDDD"/>
<path d="M123.519 64.5414C123.636 64.624 123.777 64.671 123.923 64.676C124.597 64.7903 125.236 65.0393 125.798 65.4062C126.428 65.8046 126.925 66.3621 127.232 67.0147C127.539 67.6673 127.645 68.3883 127.536 69.0947C127.323 71.1165 126.096 72.388 124.133 73.0897C123.24 73.3936 122.296 73.5449 121.346 73.5364C119.127 73.5364 116.909 73.5364 114.69 73.5364C114.301 73.5364 114.328 73.5364 114.328 73.1613V57.3934C114.328 57.2903 114.328 57.1901 114.328 57.087C114.328 56.9839 114.389 56.8722 114.547 56.8808C114.627 56.8808 114.703 56.8808 114.782 56.8808C116.83 56.8808 118.878 56.8808 120.926 56.8808C121.858 56.8754 122.786 56.992 123.683 57.2273C124.251 57.3787 124.79 57.6104 125.284 57.9146C127.149 59.0601 127.207 61.4256 126.239 62.7258C125.661 63.4946 124.848 64.0799 123.908 64.4039L123.519 64.5414ZM118.287 68.5793C118.287 69.2207 118.287 69.8622 118.287 70.5037C118.287 70.7099 118.367 70.7901 118.592 70.7901C119.289 70.7901 119.989 70.7901 120.686 70.7729C121.262 70.773 121.829 70.6308 122.329 70.3605C122.7 70.1549 122.997 69.8501 123.183 69.4849C123.369 69.1197 123.435 68.7107 123.373 68.3101C123.349 67.9429 123.211 67.5904 122.977 67.2958C122.743 67.0012 122.422 66.7774 122.055 66.652C121.769 66.5372 121.466 66.4629 121.157 66.4314C120.323 66.378 119.486 66.3646 118.65 66.3913C118.306 66.3913 118.3 66.3913 118.297 66.7493C118.278 67.3536 118.281 67.9664 118.281 68.5793H118.287ZM119.642 59.6529C119.243 59.6529 118.963 59.6529 118.683 59.6529C118.297 59.6529 118.291 59.6529 118.287 60.0138C118.287 60.9044 118.287 61.795 118.287 62.6857C118.287 62.9176 118.287 63.1524 118.287 63.3844C118.287 63.5247 118.342 63.6078 118.504 63.6049C119.295 63.6049 120.089 63.6765 120.871 63.519C121.25 63.4694 121.607 63.323 121.904 63.0958C122.2 62.8686 122.425 62.5693 122.554 62.2303C122.977 61.0848 122.457 60.1398 121.227 59.8104C121.139 59.7875 121.048 59.7704 120.956 59.7532C120.521 59.6752 120.078 59.6416 119.636 59.6529H119.642Z" fill="#DDDDDD"/>
<path d="M16.8154 66.1051C17.8135 66.5375 18.4861 67.2821 19.0612 68.1097C20.1842 69.7191 21.2736 71.3486 22.3753 72.9781L22.7131 73.4792C22.5974 73.5511 22.4563 73.5768 22.3205 73.5508C21.0789 73.5508 19.8373 73.5508 18.5987 73.5508C18.4714 73.5604 18.3442 73.5321 18.235 73.47C18.1257 73.4078 18.0401 73.3148 17.99 73.2043C17.1532 71.8727 16.3011 70.5496 15.452 69.2237C15.1812 68.797 14.8769 68.3961 14.5725 67.9894C13.9639 67.2019 13.0996 67.0931 12.1623 67.1647C12.0254 67.1647 11.9767 67.2477 11.9737 67.3651C11.9706 67.4825 11.9737 67.6 11.9737 67.7145V73.0583C11.9737 73.5566 12.0345 73.5422 11.4807 73.5422H9.4326C9.06133 73.5422 8.68702 73.5422 8.31575 73.5422C8.08751 73.5422 7.95969 73.4936 8.01143 73.2559C8.01752 73.1834 8.01752 73.1107 8.01143 73.0382C8.01143 67.8262 8.01143 62.6132 8.01143 57.3993C8.01143 56.8008 7.95361 56.8838 8.55007 56.8838C10.519 56.8838 12.491 56.8838 14.4599 56.8838C15.5311 56.873 16.5976 57.0179 17.6218 57.3134C17.9169 57.4035 18.2038 57.5155 18.48 57.6484C19.0997 57.9401 19.6272 58.3798 20.0096 58.9236C20.392 59.4674 20.6159 60.0962 20.6589 60.747C20.7489 61.4002 20.7023 62.0637 20.522 62.7001C20.0381 64.2866 18.8939 65.2775 17.3114 65.8703C17.1653 65.9247 17.0071 65.9705 16.8762 66.0249C16.8549 66.0278 16.8519 66.0449 16.8154 66.1051ZM11.9463 62.0156C11.9463 62.7001 11.9463 63.3874 11.9463 64.0718C11.9463 64.2551 12.0041 64.3353 12.211 64.3296C12.8197 64.3296 13.4283 64.3525 14.0369 64.3152C14.4308 64.3007 14.8161 64.2023 15.1637 64.0273C15.5113 63.8524 15.8121 63.6054 16.0436 63.3052C16.2751 63.0049 16.4311 62.6591 16.4999 62.2939C16.5688 61.9287 16.5487 61.5535 16.4411 61.1966C16.2159 60.3633 15.5859 59.9452 14.7277 59.7848C13.8696 59.6244 13.0266 59.7218 12.1776 59.696C11.9706 59.696 11.9615 59.8163 11.9615 59.9566L11.9463 62.0156Z" fill="#DDDDDD"/>
<path d="M53.6166 73.4906C53.4933 73.545 53.3562 73.5658 53.221 73.5508H49.7305C49.2588 73.5508 49.3227 73.5508 49.1949 73.1727C48.8601 72.1857 48.5264 71.1977 48.1936 70.2088C48.0719 69.8537 48.0689 69.8479 47.6824 69.8479C45.8352 69.8479 43.991 69.8479 42.1438 69.8479C42.0919 69.8407 42.0391 69.8433 41.9883 69.8556C41.9375 69.8679 41.8899 69.8896 41.8482 69.9195C41.8065 69.9494 41.7716 69.9868 41.7455 70.0296C41.7195 70.0724 41.7028 70.1197 41.6964 70.1687C41.3647 71.1882 41.0209 72.2019 40.68 73.2157C40.5674 73.5508 40.5644 73.5536 40.2083 73.5536H36.5778C36.5017 73.5536 36.4256 73.5536 36.3526 73.5536C36.2644 73.399 36.3709 73.2873 36.4135 73.1727C38.4544 67.8634 40.4995 62.554 42.5485 57.2446C42.6794 56.9067 42.6824 56.9066 43.075 56.9038H46.8942C47.4633 56.9038 47.3568 56.8408 47.5424 57.3276C49.0437 61.3082 50.542 65.2917 52.0372 69.278C52.518 70.5553 52.9978 71.8325 53.4766 73.1097C53.5253 73.2243 53.571 73.3589 53.6166 73.4906ZM44.9496 59.8363C44.3562 62.3163 43.3854 64.5758 42.6764 66.9556C44.1797 66.9556 45.6404 66.9556 47.0951 66.9556C47.1055 66.7888 47.0709 66.6224 46.9946 66.4716C46.5473 65.1342 46.0817 63.8026 45.6404 62.4623C45.4144 61.8712 45.2304 61.2665 45.0896 60.6524C45.044 60.4119 45.0044 60.1685 44.9496 59.8363Z" fill="#DDDDDD"/>
<path d="M24.4081 65.22V57.422C24.4081 57.3189 24.4081 57.2158 24.4081 57.1156C24.4081 56.9523 24.472 56.8693 24.6546 56.8808C24.7459 56.8808 24.8402 56.8808 24.9315 56.8808H34.0611C34.5875 56.8808 34.5632 56.8263 34.5632 57.3504C34.5632 58.095 34.5632 58.8424 34.5632 59.587C34.5632 59.9392 34.5632 59.945 34.1737 59.945H28.9576C28.8481 59.945 28.7385 59.945 28.632 59.945C28.4525 59.945 28.3825 60.0022 28.3825 60.1712C28.3825 61.2537 28.3825 62.3333 28.3825 63.413C28.3825 63.6392 28.5073 63.6363 28.6868 63.6363H32.1773C32.7373 63.6363 33.2942 63.6363 33.8541 63.6363C34.1037 63.6363 34.1585 63.7223 34.1585 63.9428C34.1585 64.7332 34.1585 65.5207 34.1585 66.3082C34.1585 66.692 34.1585 66.6977 33.7537 66.6977H28.9059C28.3338 66.6977 28.3886 66.6261 28.3855 67.1874C28.3855 68.1525 28.3855 69.1147 28.3855 70.0798C28.3855 70.5323 28.3429 70.495 28.845 70.495H34.4293C35.0532 70.495 34.9862 70.4693 34.9862 71.0105C34.9862 71.7417 34.9862 72.472 34.9862 73.2013C34.9862 73.5363 34.9862 73.5421 34.6301 73.5421C33.6989 73.5421 32.7677 73.5421 31.8365 73.5421H24.8098C24.4111 73.5421 24.4081 73.5421 24.4081 73.1469V65.22Z" fill="#DDDDDD"/>
<path d="M100.926 65.2144V57.4193C100.926 57.3162 100.926 57.2131 100.926 57.1129C100.926 56.9468 100.99 56.8695 101.169 56.8809C101.264 56.8809 101.355 56.8809 101.449 56.8809H110.579C111.151 56.8809 111.09 56.8294 111.09 57.3821C111.09 58.0846 111.09 58.7853 111.09 59.4841C111.09 59.9852 111.136 59.9451 110.579 59.948H105.129C104.967 59.948 104.906 60.0167 104.909 60.1599C104.909 60.2172 104.909 60.2745 104.909 60.3346V63.2699C104.909 63.6651 104.891 63.6365 105.326 63.6365H110.074C110.167 63.6423 110.26 63.6423 110.354 63.6365C110.609 63.6079 110.658 63.7339 110.658 63.9458C110.658 64.7505 110.658 65.5523 110.658 66.3542C110.658 66.6864 110.658 66.695 110.293 66.695H105.317C104.916 66.695 104.909 66.695 104.909 67.0816C104.909 68.0896 104.909 69.0862 104.909 70.1028C104.909 70.5295 104.894 70.4952 105.354 70.4952H110.938C111.528 70.4952 111.495 70.4408 111.492 71.0107C111.492 71.7409 111.492 72.4712 111.492 73.2014C111.492 73.5365 111.492 73.5422 111.136 73.5422H101.501C101.392 73.5422 101.282 73.5422 101.175 73.5422C101.005 73.5422 100.911 73.4935 100.926 73.3188C100.926 73.2157 100.926 73.1126 100.926 73.0124V65.2144Z" fill="#DDDDDD"/>
<path d="M55.8442 65.1887V57.3076C55.8442 56.8236 55.8442 56.8838 56.2946 56.8809H59.4139C59.8125 56.8809 59.8186 56.8809 59.8186 57.2704C59.8186 59.359 59.8186 61.4457 59.8186 63.5305V70.0112C59.8186 70.5238 59.776 70.4923 60.3147 70.4923H66.0967C66.2641 70.4923 66.3584 70.5496 66.3584 70.7186C66.3584 71.5949 66.3584 72.4712 66.3584 73.3475C66.3584 73.4706 66.3037 73.5365 66.1667 73.5394H56.2429C55.8138 73.5394 55.8442 73.5594 55.8442 73.1556V65.1887Z" fill="#DDDDDD"/>
<path d="M111.998 19.5748L102.901 7.08597C103.016 7.01732 103.154 6.99176 103.288 7.01438H111.651C111.712 7.01438 111.772 7.01438 111.836 7.01438C112.004 7.01438 112.104 7.0602 112.092 7.23489C112.092 7.29216 112.092 7.3523 112.092 7.40958C112.092 11.3787 112.092 15.3479 112.092 19.317C112.092 19.3886 112.092 19.4602 112.092 19.529L111.998 19.5748Z" fill="#E9001D"/>
<path d="M70.1324 65.1914C70.1314 65.487 70.0685 65.7795 69.9474 66.0523C69.8262 66.325 69.6492 66.5726 69.4264 66.781C69.2035 66.9893 68.9393 67.1543 68.6487 67.2666C68.358 67.3788 68.0468 67.4361 67.7327 67.4352C67.4185 67.4342 67.1077 67.3751 66.8178 67.2611C66.528 67.1471 66.2648 66.9805 66.0434 66.7708C65.822 66.5612 65.6466 66.3125 65.5273 66.039C65.408 65.7656 65.3472 65.4727 65.3482 65.1771C65.3492 64.8815 65.412 64.589 65.5332 64.3163C65.6543 64.0435 65.8313 63.7959 66.0542 63.5876C66.277 63.3792 66.5413 63.2142 66.8319 63.102C67.1225 62.9897 67.4337 62.9324 67.7479 62.9334C68.062 62.9343 68.3729 62.9935 68.6627 63.1074C68.9526 63.2214 69.2157 63.388 69.4371 63.5977C69.6585 63.8074 69.8339 64.056 69.9532 64.3295C70.0725 64.603 70.1334 64.8958 70.1324 65.1914Z" fill="#DDDDDD"/>
</svg>
