<svg width="34" height="40" viewBox="0 0 34 40" fill="none" xmlns="http://www.w3.org/2000/svg">
<path d="M18.6478 36.3636C18.6478 35.8712 18.4847 35.4451 18.1586 35.0852C17.8325 34.7254 17.4463 34.5455 17 34.5455C16.5537 34.5455 16.1676 34.7254 15.8414 35.0852C15.5153 35.4451 15.3523 35.8712 15.3523 36.3636C15.3523 36.8561 15.5153 37.2822 15.8414 37.642C16.1676 38.0019 16.5537 38.1818 17 38.1818C17.4463 38.1818 17.8325 38.0019 18.1586 37.642C18.4847 37.2822 18.6478 36.8561 18.6478 36.3636ZM28.5343 31.8182V4.54545C28.5343 4.29924 28.4528 4.08617 28.2897 3.90625C28.1266 3.72633 27.9335 3.63636 27.7104 3.63636H6.28961C6.06648 3.63636 5.87338 3.72633 5.71032 3.90625C5.54727 4.08617 5.46574 4.29924 5.46574 4.54545V31.8182C5.46574 32.0644 5.54727 32.2775 5.71032 32.4574C5.87338 32.6373 6.06648 32.7273 6.28961 32.7273H27.7104C27.9335 32.7273 28.1266 32.6373 28.2897 32.4574C28.4528 32.2775 28.5343 32.0644 28.5343 31.8182ZM31.8298 4.54545V35.4545C31.8298 36.7045 31.4264 37.7746 30.6197 38.6648C29.813 39.5549 28.8432 40 27.7104 40H6.28961C5.15678 40 4.18701 39.5549 3.3803 38.6648C2.57358 37.7746 2.17023 36.7045 2.17023 35.4545V4.54545C2.17023 3.29545 2.57358 2.22538 3.3803 1.33523C4.18701 0.445076 5.15678 0 6.28961 0H27.7104C28.8432 0 29.813 0.445076 30.6197 1.33523C31.4264 2.22538 31.8298 3.29545 31.8298 4.54545Z" fill="white" fill-opacity="0.33"/>
</svg>
